<svg width="19" height="19" viewBox="0 0 19 19" fill="none" xmlns="http://www.w3.org/2000/svg">
<path d="M16.7188 12.2812L14.1875 11.9531C13.5781 11.9062 12.9688 12.0938 12.5469 12.5625L10.7188 14.3906C7.85938 12.9375 5.5625 10.6406 4.10938 7.78125L5.98438 5.95312C6.40625 5.53125 6.59375 4.92188 6.54688 4.3125L6.26562 1.78125C6.125 0.75 5.28125 0 4.25 0H2.51562C1.39062 0 0.453125 0.9375 0.546875 2.0625C1.0625 10.6406 7.90625 17.4375 16.4375 17.9531C17.5625 18.0469 18.5 17.1094 18.5 15.9844V14.25C18.5 13.2188 17.75 12.375 16.7188 12.2812Z" fill="#F5F4F5"/>
</svg>
