<svg width="25" height="24" viewBox="0 0 25 24" fill="none" xmlns="http://www.w3.org/2000/svg">
<path d="M1.04883 23.1468L2.6316 17.3573C1.6585 15.6569 1.148 13.7312 1.15098 11.7721C1.13929 5.59608 6.12452 0.580078 12.2519 0.580078C15.2248 0.580078 18.0168 1.74008 20.1196 3.85577C22.2224 5.97146 23.375 8.78069 23.375 11.7721C23.375 17.937 18.3904 22.9536 12.263 22.9536C10.4051 22.956 8.57702 22.4864 6.95037 21.5887L1.04883 23.1468ZM7.21067 19.5752L7.54975 19.7801C8.97217 20.6274 10.5968 21.0754 12.2525 21.0767C17.3393 21.0767 21.4882 16.9019 21.4882 11.7838C21.4882 9.30377 20.5276 6.961 18.7867 5.209C17.0445 3.45823 14.7159 2.47977 12.2513 2.47977C7.15283 2.47977 3.0039 6.65454 3.0039 11.7727C3.0039 13.5247 3.49006 15.2422 4.41744 16.7204L4.63221 17.0736L3.69375 20.5087L7.20944 19.5758L7.21067 19.5752Z" fill="white"/>
<path d="M1.43359 22.76L2.95975 17.1644C2.01868 15.5232 1.52371 13.6642 1.52406 11.7724C1.52406 5.82405 6.34005 0.978516 12.2521 0.978516C15.1234 0.978516 17.8139 2.10467 19.8484 4.14036C20.8482 5.14346 21.6404 6.33386 22.1796 7.64344C22.7189 8.95303 22.9947 10.3561 22.9911 11.7724C22.9911 17.7213 18.1757 22.5668 12.2631 22.5668C10.4662 22.5668 8.70252 22.1114 7.13082 21.2474L1.43359 22.76Z" fill="url(#paint0_linear_170_225)"/>
<path d="M1.04883 23.1468L2.6316 17.3573C1.6585 15.6569 1.148 13.7312 1.15098 11.7721C1.13929 5.59608 6.12452 0.580078 12.2519 0.580078C15.2248 0.580078 18.0168 1.74008 20.1196 3.85577C22.2224 5.97146 23.375 8.78069 23.375 11.7721C23.375 17.937 18.3904 22.9536 12.263 22.9536C10.4051 22.956 8.57702 22.4864 6.95037 21.5887L1.04883 23.1468ZM7.21067 19.5752L7.54975 19.7801C8.97217 20.6274 10.5968 21.0754 12.2525 21.0767C17.3393 21.0767 21.4882 16.9019 21.4882 11.7838C21.4882 9.30377 20.5276 6.961 18.7867 5.209C17.0445 3.45823 14.7159 2.47977 12.2513 2.47977C7.15283 2.47977 3.0039 6.65454 3.0039 11.7727C3.0039 13.5247 3.49006 15.2422 4.41744 16.7204L4.63221 17.0736L3.69375 20.5087L7.20944 19.5758L7.21067 19.5752Z" fill="url(#paint1_linear_170_225)"/>
<path fill-rule="evenodd" clip-rule="evenodd" d="M9.48232 7.08591C9.27924 6.61945 9.05278 6.60837 8.86078 6.60837C8.69093 6.59668 8.51001 6.59668 8.31801 6.59668C8.13709 6.59668 7.83185 6.66499 7.57216 6.94929C7.31185 7.2336 6.59985 7.90499 6.59985 9.2816C6.59985 10.6576 7.59493 11.9887 7.73032 12.1702C7.8657 12.3524 9.65216 15.2644 12.478 16.3905C14.8294 17.3228 15.3045 17.1413 15.8134 17.0841C16.3217 17.0274 17.4522 16.4133 17.6897 15.753C17.9156 15.105 17.9156 14.5364 17.8479 14.4225C17.7802 14.3087 17.5876 14.2404 17.3162 14.0927C17.0337 13.9561 15.6774 13.2742 15.4171 13.1825C15.1574 13.0914 14.9765 13.0459 14.7955 13.3191C14.6146 13.6034 14.0835 14.2293 13.9137 14.4108C13.7555 14.593 13.5863 14.6158 13.3149 14.4791C13.0319 14.3431 12.1395 14.0471 11.0762 13.0914C10.2515 12.3524 9.6977 11.4311 9.52785 11.1579C9.3697 10.8736 9.50509 10.7259 9.65216 10.5893C9.77647 10.4644 9.93524 10.2594 10.0706 10.1001C10.206 9.94068 10.2509 9.81576 10.3531 9.6336C10.4435 9.45206 10.398 9.28099 10.3303 9.14499C10.2626 9.01945 9.73093 7.64345 9.48232 7.08591Z" fill="white"/>
<defs>
<linearGradient id="paint0_linear_170_225" x1="12.2102" y1="22.7588" x2="12.2102" y2="0.974207" gradientUnits="userSpaceOnUse">
<stop stop-color="#20B038"/>
<stop offset="1" stop-color="#60D66A"/>
</linearGradient>
<linearGradient id="paint1_linear_170_225" x1="12.2101" y1="23.1493" x2="12.2101" y2="0.583156" gradientUnits="userSpaceOnUse">
<stop stop-color="#F9F9F9"/>
<stop offset="1" stop-color="white"/>
</linearGradient>
</defs>
</svg>
